<svg version="1.2" xmlns="http://www.w3.org/2000/svg" viewBox="0 0 512 512" width="33" height="33">
	<title>facebook-svg</title>
	<style>
		.s0 { fill: #000000 } 
	</style>
	<g>
		<path fill-rule="evenodd" class="s0" d="m512 256c0 141.4-114.6 256-256 256-141.4 0-256-114.6-256-256 0-141.4 114.6-256 256-256 141.4 0 256 114.6 256 256zm-47.8 87.9c11.7-27.9 17.7-57.5 17.7-88 0-30.6-5.9-60.2-17.7-88-11.3-26.9-27.6-51-48.4-71.8-20.7-20.7-44.9-37-71.8-48.4-27.9-11.7-57.5-17.7-88-17.7-30.5 0-60.1 6-88 17.7-26.9 11.4-51 27.7-71.9 48.5-20.7 20.7-37 44.9-48.4 71.8-11.7 27.9-17.7 57.5-17.7 88 0 30.5 6 60.1 17.8 87.9 11.3 26.9 27.6 51 48.4 71.8 20.7 20.7 44.9 37 71.8 48.4 27.9 11.7 57.5 17.7 88 17.7 30.6 0 60.2-5.9 88-17.7 26.9-11.3 51-27.6 71.8-48.4 20.7-20.7 37-44.9 48.4-71.8z"/>
		<path class="s0" d="m289.8 168.7c10.3 0 21.3 3.2 21.3 3.2l6.6-39.2c0 0-14-4.8-47.4-4.8-20.5 0-32.4 7.8-41.1 19.3-8.2 10.9-8.5 28.4-8.5 39.7v25.7h-26.5v38.3h26.5v133h49.6v-133h39.3l2.9-38.3h-42.2v-29.9c0-10.3 9.2-14 19.5-14z"/>
	</g>
</svg>