<svg version="1.2" xmlns="http://www.w3.org/2000/svg" viewBox="0 0 16 16" width="33" height="33">
	<title>github-svg</title>
	<style>
		.s0 { fill: #000000 } 
	</style>
	<path fill-rule="evenodd" class="s0" d="m8 1c-3.9 0-7 3.1-7 7 0 3.1 2 5.7 4.8 6.6 0.3 0.1 0.5-0.1 0.5-0.3 0-0.2 0-0.6 0-1.2-2 0.4-2.4-0.9-2.4-0.9-0.3-0.8-0.8-1.1-0.8-1.1-0.6-0.4 0.1-0.4 0.1-0.4 0.7 0.1 1 0.7 1 0.7 0.7 1.1 1.7 0.8 2.1 0.6 0-0.4 0.2-0.7 0.4-0.9-1.5-0.2-3.2-0.8-3.2-3.5 0-0.7 0.3-1.4 0.8-1.8-0.1-0.2-0.4-0.9 0-1.9 0 0 0.6-0.2 1.9 0.7q0.3 0 0.5-0.1 0.2 0 0.4-0.1 0.2 0 0.5 0 0.2 0 0.4 0 0.9 0 1.8 0.2c1.3-0.9 1.9-0.7 1.9-0.7 0.4 1 0.1 1.7 0 1.9 0.5 0.4 0.8 1.1 0.8 1.8 0 2.7-1.7 3.3-3.2 3.5 0.2 0.2 0.4 0.6 0.4 1.3 0 0.9 0 1.7 0 1.9 0 0.2 0.2 0.4 0.5 0.3q1.1-0.3 1.9-1 0.9-0.6 1.6-1.5 0.6-0.9 1-2 0.3-1 0.3-2.1 0-1.4-0.5-2.7-0.6-1.3-1.6-2.3-0.9-0.9-2.2-1.5-1.3-0.5-2.7-0.5z"/>
</svg>