<svg version="1.2" xmlns="http://www.w3.org/2000/svg" viewBox="0 0 512 512" width="33" height="33">
	<title>instagram-svg</title>
	<style>
		.s0 { fill: #000000 } 
	</style>
	<g>
		<path fill-rule="evenodd" class="s0" d="m512 256c0 141.4-114.6 256-256 256-141.4 0-256-114.6-256-256 0-141.4 114.6-256 256-256 141.4 0 256 114.6 256 256zm-47.8 87.9c11.7-27.9 17.7-57.5 17.7-88 0-30.6-5.9-60.2-17.7-88-11.3-26.9-27.6-51-48.4-71.8-20.7-20.7-44.9-37-71.8-48.4-27.9-11.7-57.5-17.7-88-17.7-30.5 0-60.1 6-88 17.7-26.9 11.4-51 27.7-71.9 48.5-20.7 20.7-37 44.9-48.4 71.8-11.7 27.9-17.7 57.5-17.7 88 0 30.5 6 60.1 17.8 87.9 11.3 26.9 27.6 51 48.4 71.8 20.7 20.7 44.9 37 71.8 48.4 27.9 11.7 57.5 17.7 88 17.7 30.6 0 60.2-5.9 88-17.7 26.9-11.3 51-27.6 71.8-48.4 20.7-20.7 37-44.9 48.4-71.8z"/>
		<path fill-rule="evenodd" class="s0" d="m384.1 177.4v157.2c0 27.3-22.2 49.5-49.5 49.5h-157c-27.3 0-49.5-22.2-49.5-49.5v-157.1c0-27.3 22.2-49.5 49.5-49.5h157c27.2 0 49.4 22.2 49.5 49.4zm-73-19.8l0.1 43.4 43.3-0.1v-43.4h-5.7zm-100.1 98.4c0 24.8 20 45.1 44.9 45.1 24.9 0 45.1-20.3 45.1-45.1 0-9.8-3.1-18.9-8.5-26.3-8.2-11.4-21.5-18.8-36.5-18.8-15 0-28.3 7.5-36.5 18.8-5.3 7.4-8.5 16.5-8.5 26.3zm148.1-26.3h-38.2c3.3 8.1 5.2 17 5.2 26.3 0 38.6-31.4 70-70 70-38.6 0-70-31.4-70-70 0-9.3 1.9-18.2 5.2-26.3h-38.2v104.8c0 13.5 11 24.5 24.5 24.5h157c13.5 0 24.5-11 24.5-24.5z"/>
	</g>
</svg>